HIERARCHY
ROOT Hips
{
	OFFSET 0.00 0.00 0.00
	CHANNELS 6 Xposition Yposition Zposition Xrotation Yrotation Zrotation
	JOINT Spine
	{
		OFFSET 0.00000 0.84964 1.27446
		CHANNELS 3 Xrotation Yrotation Zrotation
		JOINT Spine1
		{
			OFFSET 0.00000 0.29508 1.67346
			CHANNELS 3 Xrotation Yrotation Zrotation
			JOINT Spine2
			{
				OFFSET 0.00000 0.14810 1.69281
				CHANNELS 3 Xrotation Yrotation Zrotation
				JOINT Spine3
				{
					OFFSET 0.00000 0.00000 1.69928
					CHANNELS 3 Xrotation Yrotation Zrotation
					JOINT Neck
					{
						OFFSET 0.00000 -0.63723 4.46061
						CHANNELS 3 Xrotation Yrotation Zrotation
						JOINT Head
						{
							OFFSET 0.00000 -0.40573 2.30101
							CHANNELS 3 Xrotation Yrotation Zrotation
							End Site
							{
								OFFSET 0.00000 0.00000 2.75071
							}
						}
					}
					JOINT RightShoulder
					{
						OFFSET -0.72014 -1.20022 3.88874
						CHANNELS 3 Xrotation Yrotation Zrotation
						JOINT RightArm
						{
							OFFSET -3.57668 0.00000 0.00000
							CHANNELS 3 Xrotation Yrotation Zrotation
							JOINT RightForeArm
							{
								OFFSET -5.92485 0.00000 0.00000
								CHANNELS 3 Xrotation Yrotation Zrotation
								JOINT RightHand
								{
									OFFSET -6.63013 0.00000 0.00000
									CHANNELS 3 Xrotation Yrotation Zrotation
									JOINT RightHandEnd
									{
										OFFSET -1.65321 0.00000 0.00000
										CHANNELS 3 Xrotation Yrotation Zrotation
										End Site
										{
											OFFSET -1.65321 0.00000 0.00000
										}
									}
									JOINT RightHandThumb1
									{
										OFFSET -0.66129 -1.10214 -0.44086
										CHANNELS 3 Yrotation Xrotation Zrotation
										End Site
										{
											OFFSET -1.59688 -0.42788 0.00000
										}
									}
								}
							}
						}
					}
					JOINT LeftShoulder
					{
						OFFSET 0.72014 -1.20022 3.88874
						CHANNELS 3 Xrotation Yrotation Zrotation
						JOINT LeftArm
						{
							OFFSET 3.57668 0.00000 0.00000
							CHANNELS 3 Xrotation Yrotation Zrotation
							JOINT LeftForeArm
							{
								OFFSET 5.92485 0.00000 0.00000
								CHANNELS 3 Xrotation Yrotation Zrotation
								JOINT LeftHand
								{
									OFFSET 6.63013 0.00000 0.00000
									CHANNELS 3 Xrotation Yrotation Zrotation
									JOINT LeftHandEnd
									{
										OFFSET 1.65321 0.00000 0.00000
										CHANNELS 3 Xrotation Yrotation Zrotation
										End Site
										{
											OFFSET 1.65321 0.00000 0.00000
										}
									}
									JOINT LeftHandThumb1
									{
										OFFSET 0.66129 -1.10214 -0.44086
										CHANNELS 3 Yrotation Xrotation Zrotation
										End Site
										{
											OFFSET 1.59688 -0.42788 0.00000
										}
									}
								}
							}
						}
					}
				}
			}
		}
	}
	JOINT RightUpLeg
	{
		OFFSET -2.13640 0.00000 -0.62412
		CHANNELS 3 Xrotation Yrotation Zrotation
		JOINT RightLeg
		{
			OFFSET 0.00000 0.00000 -11.49360
			CHANNELS 3 Xrotation Yrotation Zrotation
			JOINT RightFoot
			{
				OFFSET 0.00000 0.00000 -8.79036
				CHANNELS 3 Xrotation Yrotation Zrotation
				JOINT RightToeBase
				{
					OFFSET 0.00000 -3.94625 -1.43632
					CHANNELS 3 Xrotation Yrotation Zrotation
					End Site
					{
						OFFSET 0.00000 -1.72833 -0.00000
					}
				}
			}
		}
	}
	JOINT LeftUpLeg
	{
		OFFSET 2.13640 0.00000 -0.62412
		CHANNELS 3 Xrotation Yrotation Zrotation
		JOINT LeftLeg
		{
			OFFSET 0.00000 0.00000 -11.49360
			CHANNELS 3 Xrotation Yrotation Zrotation
			JOINT LeftFoot
			{
				OFFSET 0.00000 0.00000 -8.79036
				CHANNELS 3 Xrotation Yrotation Zrotation
				JOINT LeftToeBase
				{
					OFFSET 0.00000 -3.94625 -1.43632
					CHANNELS 3 Xrotation Yrotation Zrotation
					End Site
					{
						OFFSET 0.00000 -1.72833 -0.00000
					}
				}
			}
		}
	}
}
MOTION
Frames: 7
Frame Time: 0.008342
 -0.8202 -41.2742 23.4600 -4.9043 0.9101 174.9950 0.3601 0.3511 1.0891 -0.5792 0.4244 0.2651 -1.7422 -1.4142 2.9256 0.3759 2.9258 0.0747 1.1652 8.8983 -7.1552 3.1244 -4.6210 -25.6701 -0.8245 13.3379 -11.6387 -56.4461 1.5765 -30.0173 0.0000 0.0000 17.7995 -62.1719 41.8078 -8.2078 0.0000 0.0000 -0.0000 -0.0000 -0.0000 0.0000 0.3485 -7.2772 9.2303 -20.3304 1.7673 10.7059 -0.0000 -0.0000 -9.4589 -4.8897 -17.7399 14.0321 0.0000 -0.0000 -0.0000 0.0000 0.0000 0.0000 -3.5244 5.8086 -54.4261 -0.3623 0.0000 -0.0000 -4.8448 -2.6461 50.0258 -0.5896 0.0000 -0.0000 -0.8898 2.6790 23.2003 -9.1312 0.0000 -0.0000 0.1869 -4.8004 -4.2876 2.5022 0.0000 0.0000
 -0.8173 -41.2708 23.4601 -4.9096 0.9089 174.9894 0.3614 0.3528 1.0946 -0.5776 0.4194 0.2658 -1.7480 -1.4071 2.9348 0.3744 2.9227 0.0756 1.1548 8.9021 -7.1738 3.1003 -4.6221 -25.7344 -0.8443 13.3255 -11.6339 -56.5460 1.5999 -29.9936 0.0000 0.0000 17.7577 -62.3977 42.0947 -7.9658 0.0000 0.0000 -0.0000 0.0000 -0.0000 -0.0000 0.3356 -7.2532 9.2583 -20.4224 1.7972 10.6623 -0.0000 -0.0000 -9.4501 -4.9752 -17.7141 14.0565 -0.0000 0.0000 -0.0000 0.0000 -0.0000 0.0000 -3.5178 5.7959 -54.4087 -0.3723 0.0000 -0.0000 -4.8497 -2.6494 50.0127 -0.5829 0.0000 -0.0000 -0.8852 2.6698 23.2082 -9.1293 0.0000 -0.0000 0.1837 -4.7860 -4.2877 2.4855 0.0000 0.0000
 -0.8131 -41.2665 23.4602 -4.9173 0.9019 174.9816 0.3594 0.3527 1.1007 -0.5724 0.4141 0.2650 -1.7545 -1.4032 2.9521 0.3721 2.9194 0.0748 1.1409 8.9065 -7.1956 3.0681 -4.6269 -25.8089 -0.8672 13.3167 -11.6274 -56.6850 1.6304 -29.9710 0.0000 0.0000 17.7035 -62.6510 42.4593 -7.7072 -0.0000 0.0000 -0.0000 -0.0000 -0.0000 -0.0000 0.3207 -7.2190 9.2942 -20.5458 1.8313 10.6032 -0.0000 -0.0000 -9.4339 -5.0790 -17.6867 14.0749 0.0000 0.0000 -0.0000 -0.0000 -0.0000 0.0000 -3.5081 5.7709 -54.3841 -0.3913 0.0000 -0.0000 -4.8492 -2.6537 49.9937 -0.5788 0.0000 -0.0000 -0.8783 2.6514 23.2132 -9.1292 0.0000 -0.0000 0.1801 -4.7685 -4.2821 2.4636 0.0000 0.0000
 -0.8080 -41.2610 23.4603 -4.9258 0.8942 174.9724 0.3578 0.3523 1.1074 -0.5668 0.4110 0.2659 -1.7609 -1.3991 2.9703 0.3691 2.9162 0.0747 1.1231 8.9067 -7.2197 3.0265 -4.6345 -25.8893 -0.8942 13.3087 -11.6210 -56.8626 1.6674 -29.9462 0.0000 0.0000 17.6353 -62.9201 42.8894 -7.4464 -0.0000 -0.0000 -0.0000 -0.0000 -0.0000 -0.0000 0.3002 -7.1758 9.3342 -20.6951 1.8635 10.5341 -0.0000 -0.0000 -9.4145 -5.1944 -17.6446 14.0927 0.0000 -0.0000 -0.0000 -0.0000 0.0000 0.0000 -3.4959 5.7422 -54.3530 -0.4117 0.0000 -0.0000 -4.8508 -2.6584 49.9687 -0.5787 0.0000 -0.0000 -0.8697 2.6297 23.2178 -9.1275 0.0000 -0.0000 0.1753 -4.7481 -4.2738 2.4352 0.0000 0.0000
 -0.8021 -41.2547 23.4604 -4.9350 0.8851 174.9623 0.3555 0.3522 1.1156 -0.5606 0.4080 0.2668 -1.7668 -1.3939 2.9894 0.3666 2.9131 0.0744 1.0988 8.9003 -7.2444 2.9802 -4.6414 -25.9693 -0.9264 13.3066 -11.6111 -57.0740 1.7099 -29.9276 0.0000 0.0000 17.5580 -63.1974 43.3718 -7.1940 -0.0000 0.0000 -0.0000 0.0000 -0.0000 -0.0000 0.2801 -7.1244 9.3803 -20.8722 1.8949 10.4532 -0.0000 -0.0000 -9.3886 -5.3242 -17.6006 14.1006 0.0000 0.0000 0.0000 0.0000 0.0000 0.0000 -3.4813 5.7091 -54.3199 -0.4345 0.0000 -0.0000 -4.8532 -2.6635 49.9421 -0.5835 0.0000 -0.0000 -0.8589 2.6042 23.2223 -9.1256 0.0000 -0.0000 0.1702 -4.7245 -4.2636 2.4013 0.0000 0.0000
 -0.7953 -41.2475 23.4604 -4.9443 0.8755 174.9516 0.3529 0.3533 1.1240 -0.5546 0.4059 0.2686 -1.7706 -1.3869 3.0086 0.3642 2.9084 0.0749 1.0692 8.8864 -7.2691 2.9290 -4.6470 -26.0455 -0.9578 13.3053 -11.6028 -57.3220 1.7583 -29.9081 0.0000 0.0000 17.4722 -63.4673 43.8889 -6.9640 0.0000 0.0000 0.0000 -0.0000 0.0000 0.0000 0.2550 -7.0681 9.4276 -21.0648 1.9250 10.3661 -0.0000 -0.0000 -9.3591 -5.4582 -17.5522 14.1027 -0.0000 -0.0000 0.0000 -0.0000 -0.0000 0.0000 -3.4641 5.6729 -54.2819 -0.4589 0.0000 -0.0000 -4.8571 -2.6682 49.9104 -0.5947 0.0000 -0.0000 -0.8462 2.5762 23.2275 -9.1225 0.0000 -0.0000 0.1645 -4.6980 -4.2524 2.3628 0.0000 0.0000
 -0.7880 -41.2396 23.4604 -4.9543 0.8660 174.9413 0.3484 0.3568 1.1332 -0.5490 0.4046 0.2704 -1.7717 -1.3791 3.0266 0.3617 2.9026 0.0748 1.0361 8.8662 -7.2925 2.8748 -4.6540 -26.1103 -0.9934 13.3099 -11.5933 -57.5902 1.8068 -29.8930 0.0000 0.0000 17.3817 -63.7229 44.4168 -6.7620 -0.0000 -0.0000 -0.0000 0.0000 -0.0000 0.0000 0.2320 -7.0080 9.4771 -21.2726 1.9522 10.2744 -0.0000 -0.0000 -9.3255 -5.5925 -17.5007 14.0937 -0.0000 0.0000 -0.0000 -0.0000 -0.0000 0.0000 -3.4458 5.6350 -54.2430 -0.4834 0.0000 -0.0000 -4.8633 -2.6722 49.8772 -0.6118 0.0000 -0.0000 -0.8327 2.5468 23.2342 -9.1188 0.0000 -0.0000 0.1585 -4.6685 -4.2423 2.3213 0.0000 0.0000
